<svg width="512" height="512" viewBox="0 0 100 100" fill="none" xmlns="http://www.w3.org/2000/svg">
  <!-- Background circle for better visibility -->
  <circle cx="50" cy="50" r="48" fill="#667eea"/>
  
  <!-- Outer circle representing a filter -->
  <circle cx="50" cy="50" r="40" stroke="#ffffff" stroke-width="3" fill="none"/>
  
  <!-- Filter funnel shape -->
  <path d="M30 30 L70 30 L58 45 L42 45 Z" fill="#ffffff" opacity="0.9"/>
  
  <!-- Filter neck -->
  <rect x="46" y="45" width="8" height="15" fill="#ffffff" opacity="0.9"/>
  
  <!-- Droplet at bottom -->
  <path d="M50 60 C47 60 45 62 45 65 C45 68 47 70 50 70 C53 70 55 68 55 65 C55 62 53 60 50 60 Z" fill="#ffffff"/>
  
  <!-- Small dots representing filtered content -->
  <circle cx="38" cy="38" r="1.5" fill="#ffffff" opacity="0.7"/>
  <circle cx="50" cy="35" r="1.5" fill="#ffffff" opacity="0.7"/>
  <circle cx="62" cy="38" r="1.5" fill="#ffffff" opacity="0.7"/>
  
  <!-- Arrow indicating download/flow -->
  <path d="M65 50 L68 53 L65 56 M68 53 L60 53" stroke="#ffffff" stroke-width="1.5" fill="none" stroke-linecap="round" stroke-linejoin="round"/>
</svg>